# xmcd
#
# Track frame offsets:
#	150
#	9895
#	20398
#	37523
#	53190
#	75615
#	88455
#	104683
#	117498
#	127728
#	146098
#
# Disc length: 2130 seconds
#
# Revision: 1
# Processed by: cddbd v1.5.2PL0 Copyright (c) Steve Scherf et al.
# Submitted via: audiograbber 1.83.01
#
DISCID=8508500b
DTITLE=The Grizzlies - Wyoming History Through Song
DYEAR=1900
DGENRE=Country
TTITLE0=Wyoming Before Wyoming
TTITLE1=Before The White Man
TTITLE2=Trapper's
TTITLE3=Sweet Betsy From Pike
TTITLE4=Transcontinental Railway
TTITLE5=Git Along Little Doggies
TTITLE6=Rocky Mountain Fiddle
TTITLE7=Jackson Hole/Yellowstone
TTITLE8=Face The Rocky Road
TTITLE9=Walking Room
TTITLE10=Wyoming 100 Years Ago
EXTD=
EXTT0=
EXTT1=
EXTT2=
EXTT3=
EXTT4=
EXTT5=
EXTT6=
EXTT7=
EXTT8=
EXTT9=
EXTT10=
PLAYORDER=
